<svg width="22" height="22" xmlns="http://www.w3.org/2000/svg" fill-rule="evenodd" clip-rule="evenodd">

<path d="M9.442,13.16L6.868,13.16 6.868,10.587 9.442,10.587z M13.33,10.587L10.757,10.587 10.757,13.16 13.33,13.16z M17.218,10.587L14.644,10.587 14.644,13.16 17.218,13.16z M9.441,14.344L6.867,14.344 6.867,16.918 9.441,16.918z M13.329,14.344L10.756,14.344 10.756,16.918 13.329,16.918z M17.217,14.344L14.644,14.344 14.644,16.918 17.217,16.918z M17.675,5.391C17.675,5.8294 17.3196,6.1849 16.8812,6.1849 16.4428,6.1849 16.0873,5.8294 16.0873,5.391L16.0873,3.393C16.0873,2.9546 16.4428,2.5992 16.8812,2.5992 17.3196,2.5992 17.675,2.9547 17.675,3.393z M7.945,3.39C7.945,2.9516 7.5896,2.5961 7.1512,2.5961 6.7127,2.5961 6.3573,2.9515 6.3573,3.39L6.3573,5.388C6.3573,5.8264 6.7127,6.1819 7.1512,6.1819 7.5896,6.1819 7.945,5.8265 7.945,5.388z M18.635,4.549L18.635,5.3623C18.635,6.3291 17.8484,7.1153 16.882,7.1153 15.9152,7.1153 15.129,6.3287 15.129,5.3623L15.129,4.549 8.91,4.549 8.91,5.3587C8.91,6.3255 8.1234,7.1117 7.157,7.1117 6.1902,7.1117 5.404,6.3251 5.404,5.3587L5.404,4.549 4.0004,4.549A1,1,135,0,0,3.0004,5.549L3.0004,19.229A1,1,45,0,0,4.0004,20.229L20.0004,20.229A1,1,135,0,0,21.0004,19.229L21.0004,5.549A1,1,45,0,0,20.0004,4.549z M19.2511,18.489L4.7511,18.489 4.7511,8.769 19.2511,8.769z" stroke="#FFFFFF" stroke-width="0.7px"/></svg>