<svg width="25" height="25" xmlns="http://www.w3.org/2000/svg" fill-rule="evenodd" clip-rule="evenodd">

<path d="M12,2C6.477,2 2,6.477 2,12 2,17.1867 5.9758,21.4823 11.0664,21.9551 10.68361,21.28146 10.4007,20.5558 10.22656,19.8008 6.66236,18.99355 3.99996,15.8082 3.99996,12 3.99996,7.582 7.58196,4 11.99996,4 15.80126,4 18.98246,6.6526 19.79686,10.207 20.55329,10.3814 21.28036,10.66498 21.95506,11.0488 21.47622,5.9718 17.20226,2 11.99996,2z M10.9023,6.5664L10.9023,6.5683532 10.9023,13.6308532 17.3886,13.6308532 17.3886,12.0370532 12.5956,12.0370532 12.5956,6.5663532 10.9022,6.5663532z M22.2423,14L16.7618,19.4785 13.5997,16.3144 11.8399,18.0761 16.7618,22.9999 24.0001,15.7597 22.2423,13.9999z" stroke="#FFFFFF" stroke-width="0.7px"/></svg>