<svg width="284" height="42" viewBox="0 0 284 42" fill="none" xmlns="http://www.w3.org/2000/svg">
<path d="M9.46172 21.12C9.46172 12.832 15.3977 9.08 20.9417 9.08C26.4297 9.08 32.3657 12.832 32.3657 21.12C32.3657 29.408 26.4297 33.104 20.9417 33.104C15.3977 33.104 9.46172 29.408 9.46172 21.12ZM0.277719 21.176C0.277719 33.72 9.74172 41.84 20.9417 41.84C32.0857 41.84 41.5497 33.72 41.5497 21.176C41.5497 8.576 32.0857 0.455998 20.9417 0.455998C9.74172 0.455998 0.277719 8.576 0.277719 21.176ZM55.759 19.104V8.968H60.911C64.271 8.968 66.567 10.872 66.567 14.064C66.567 17.144 64.271 19.104 60.911 19.104H55.759ZM61.807 26.72C69.871 26.72 75.415 21.512 75.415 14.008C75.415 6.616 69.871 1.296 61.807 1.296H46.855V41H55.703V26.72H61.807ZM105.125 41V32.6H88.7733V24.984H103.557V17.2H88.7733V9.64H105.069V1.296H79.9253V41H105.125ZM146.07 41V1.296H137.222V25.432L122.326 1.296H111.574V41H120.366V14.904L136.718 41H146.07ZM175.242 32.656V9.64H180.394C186.498 9.64 191.482 13.224 191.482 21.176C191.482 29.128 186.498 32.656 180.394 32.656H175.242ZM180.73 41C192.714 41 200.722 33.44 200.722 21.176C200.722 8.912 192.714 1.296 180.786 1.296H166.394V41H180.73ZM214.987 41V1.296H206.027V41H214.987ZM231.486 19.104V8.968H236.638C239.998 8.968 242.294 10.872 242.294 14.064C242.294 17.144 239.998 19.104 236.638 19.104H231.486ZM237.534 26.72C245.598 26.72 251.142 21.512 251.142 14.008C251.142 6.616 245.598 1.296 237.534 1.296H222.582V41H231.43V26.72H237.534ZM283.253 11.04C282.413 6.392 278.661 0.455998 268.749 0.455998C261.133 0.455998 254.525 5.72 254.525 13.224C254.525 19.104 258.613 23.584 265.333 24.872L270.765 25.88C273.397 26.384 275.021 27.84 275.021 29.856C275.021 32.32 272.893 34 269.421 34C263.989 34 261.525 30.808 261.189 27.168L253.069 29.128C253.629 34.728 258.333 41.84 269.309 41.84C278.773 41.84 283.981 35.512 283.981 29.296C283.981 23.64 280.061 18.768 272.501 17.368L267.181 16.36C264.437 15.856 263.261 14.456 263.261 12.552C263.261 10.368 265.389 8.296 268.693 8.296C273.509 8.296 275.021 11.432 275.301 13.28L283.253 11.04Z" fill="#00149E"/>
</svg>